<?xml version="1.0" encoding="UTF-8" standalone="no"?>
<!DOCTYPE svg PUBLIC "-//W3C//DTD SVG 1.1//EN"
 "http://www.w3.org/Graphics/SVG/1.1/DTD/svg11.dtd">
<!-- Generated by graphviz version 2.43.0 (0)
 -->
<!-- Title: %3 Pages: 1 -->
<svg width="1056pt" height="548pt"
 viewBox="0.00 0.00 1056.40 548.00" xmlns="http://www.w3.org/2000/svg" xmlns:xlink="http://www.w3.org/1999/xlink">
<g id="graph0" class="graph" transform="scale(1 1) rotate(0) translate(4 544)">
<title>%3</title>
<polygon fill="white" stroke="transparent" points="-4,4 -4,-544 1052.4,-544 1052.4,4 -4,4"/>
<!-- [root] aws_eip.eip (expand) -->
<g id="node1" class="node">
<title>[root] aws_eip.eip (expand)</title>
<polygon fill="none" stroke="black" points="532.32,-324 433.32,-324 433.32,-288 532.32,-288 532.32,-324"/>
<text text-anchor="middle" x="482.82" y="-302.3" font-family="Times,serif" font-size="14.00">aws_eip.eip</text>
</g>
<!-- [root] aws_instance.ec2server (expand) -->
<g id="node3" class="node">
<title>[root] aws_instance.ec2server (expand)</title>
<polygon fill="none" stroke="black" points="575.82,-252 389.82,-252 389.82,-216 575.82,-216 575.82,-252"/>
<text text-anchor="middle" x="482.82" y="-230.3" font-family="Times,serif" font-size="14.00">aws_instance.ec2server</text>
</g>
<!-- [root] aws_eip.eip (expand)&#45;&gt;[root] aws_instance.ec2server (expand) -->
<g id="edge1" class="edge">
<title>[root] aws_eip.eip (expand)&#45;&gt;[root] aws_instance.ec2server (expand)</title>
<path fill="none" stroke="black" d="M482.82,-287.7C482.82,-279.98 482.82,-270.71 482.82,-262.11"/>
<polygon fill="black" stroke="black" points="486.32,-262.1 482.82,-252.1 479.32,-262.1 486.32,-262.1"/>
</g>
<!-- [root] aws_eip_association.eip&#45;assoc (expand) -->
<g id="node2" class="node">
<title>[root] aws_eip_association.eip&#45;assoc (expand)</title>
<polygon fill="none" stroke="black" points="597.32,-396 368.32,-396 368.32,-360 597.32,-360 597.32,-396"/>
<text text-anchor="middle" x="482.82" y="-374.3" font-family="Times,serif" font-size="14.00">aws_eip_association.eip&#45;assoc</text>
</g>
<!-- [root] aws_eip_association.eip&#45;assoc (expand)&#45;&gt;[root] aws_eip.eip (expand) -->
<g id="edge2" class="edge">
<title>[root] aws_eip_association.eip&#45;assoc (expand)&#45;&gt;[root] aws_eip.eip (expand)</title>
<path fill="none" stroke="black" d="M482.82,-359.7C482.82,-351.98 482.82,-342.71 482.82,-334.11"/>
<polygon fill="black" stroke="black" points="486.32,-334.1 482.82,-324.1 479.32,-334.1 486.32,-334.1"/>
</g>
<!-- [root] aws_key_pair.terraform&#45;key (expand) -->
<g id="node4" class="node">
<title>[root] aws_key_pair.terraform&#45;key (expand)</title>
<polygon fill="none" stroke="black" points="266.32,-180 53.32,-180 53.32,-144 266.32,-144 266.32,-180"/>
<text text-anchor="middle" x="159.82" y="-158.3" font-family="Times,serif" font-size="14.00">aws_key_pair.terraform&#45;key</text>
</g>
<!-- [root] aws_instance.ec2server (expand)&#45;&gt;[root] aws_key_pair.terraform&#45;key (expand) -->
<g id="edge3" class="edge">
<title>[root] aws_instance.ec2server (expand)&#45;&gt;[root] aws_key_pair.terraform&#45;key (expand)</title>
<path fill="none" stroke="black" d="M404.22,-215.97C357.14,-205.76 297.16,-192.76 248.41,-182.2"/>
<polygon fill="black" stroke="black" points="249.01,-178.75 238.5,-180.05 247.53,-185.59 249.01,-178.75"/>
</g>
<!-- [root] data.aws_ami.ubuntu (expand) -->
<g id="node6" class="node">
<title>[root] data.aws_ami.ubuntu (expand)</title>
<polygon fill="none" stroke="black" points="739.32,-180 570.32,-180 570.32,-144 739.32,-144 739.32,-180"/>
<text text-anchor="middle" x="654.82" y="-158.3" font-family="Times,serif" font-size="14.00">data.aws_ami.ubuntu</text>
</g>
<!-- [root] aws_instance.ec2server (expand)&#45;&gt;[root] data.aws_ami.ubuntu (expand) -->
<g id="edge4" class="edge">
<title>[root] aws_instance.ec2server (expand)&#45;&gt;[root] data.aws_ami.ubuntu (expand)</title>
<path fill="none" stroke="black" d="M524.9,-215.88C548.62,-206.22 578.44,-194.09 603.53,-183.88"/>
<polygon fill="black" stroke="black" points="604.94,-187.08 612.88,-180.07 602.3,-180.6 604.94,-187.08"/>
</g>
<!-- [root] var.ec2Name -->
<g id="node8" class="node">
<title>[root] var.ec2Name</title>
<polygon fill="none" stroke="black" points="388.82,-180 284.82,-180 284.82,-144 394.82,-144 394.82,-174 388.82,-180"/>
<polyline fill="none" stroke="black" points="388.82,-180 388.82,-174 "/>
<polyline fill="none" stroke="black" points="394.82,-174 388.82,-174 "/>
<text text-anchor="middle" x="339.82" y="-158.3" font-family="Times,serif" font-size="14.00">var.ec2Name</text>
</g>
<!-- [root] aws_instance.ec2server (expand)&#45;&gt;[root] var.ec2Name -->
<g id="edge5" class="edge">
<title>[root] aws_instance.ec2server (expand)&#45;&gt;[root] var.ec2Name</title>
<path fill="none" stroke="black" d="M447.84,-215.88C428.63,-206.47 404.6,-194.71 384.09,-184.67"/>
<polygon fill="black" stroke="black" points="385.46,-181.44 374.94,-180.19 382.38,-187.73 385.46,-181.44"/>
</g>
<!-- [root] var.instance&#45;type -->
<g id="node9" class="node">
<title>[root] var.instance&#45;type</title>
<polygon fill="none" stroke="black" points="546.32,-180 413.32,-180 413.32,-144 552.32,-144 552.32,-174 546.32,-180"/>
<polyline fill="none" stroke="black" points="546.32,-180 546.32,-174 "/>
<polyline fill="none" stroke="black" points="552.32,-174 546.32,-174 "/>
<text text-anchor="middle" x="482.82" y="-158.3" font-family="Times,serif" font-size="14.00">var.instance&#45;type</text>
</g>
<!-- [root] aws_instance.ec2server (expand)&#45;&gt;[root] var.instance&#45;type -->
<g id="edge6" class="edge">
<title>[root] aws_instance.ec2server (expand)&#45;&gt;[root] var.instance&#45;type</title>
<path fill="none" stroke="black" d="M482.82,-215.7C482.82,-207.98 482.82,-198.71 482.82,-190.11"/>
<polygon fill="black" stroke="black" points="486.32,-190.1 482.82,-180.1 479.32,-190.1 486.32,-190.1"/>
</g>
<!-- [root] var.sgName -->
<g id="node12" class="node">
<title>[root] var.sgName</title>
<polygon fill="none" stroke="black" points="852.32,-180 757.32,-180 757.32,-144 858.32,-144 858.32,-174 852.32,-180"/>
<polyline fill="none" stroke="black" points="852.32,-180 852.32,-174 "/>
<polyline fill="none" stroke="black" points="858.32,-174 852.32,-174 "/>
<text text-anchor="middle" x="807.82" y="-158.3" font-family="Times,serif" font-size="14.00">var.sgName</text>
</g>
<!-- [root] aws_instance.ec2server (expand)&#45;&gt;[root] var.sgName -->
<g id="edge7" class="edge">
<title>[root] aws_instance.ec2server (expand)&#45;&gt;[root] var.sgName</title>
<path fill="none" stroke="black" d="M575.88,-216.44C624.53,-207.31 685.22,-195.19 747.11,-180.33"/>
<polygon fill="black" stroke="black" points="748.15,-183.68 757.05,-177.92 746.5,-176.88 748.15,-183.68"/>
</g>
<!-- [root] provider[&quot;registry.terraform.io/hashicorp/aws&quot;] -->
<g id="node7" class="node">
<title>[root] provider[&quot;registry.terraform.io/hashicorp/aws&quot;]</title>
<polygon fill="none" stroke="black" points="654.82,-108 329.56,-90 654.82,-72 980.09,-90 654.82,-108"/>
<text text-anchor="middle" x="654.82" y="-86.3" font-family="Times,serif" font-size="14.00">provider[&quot;registry.terraform.io/hashicorp/aws&quot;]</text>
</g>
<!-- [root] aws_key_pair.terraform&#45;key (expand)&#45;&gt;[root] provider[&quot;registry.terraform.io/hashicorp/aws&quot;] -->
<g id="edge8" class="edge">
<title>[root] aws_key_pair.terraform&#45;key (expand)&#45;&gt;[root] provider[&quot;registry.terraform.io/hashicorp/aws&quot;]</title>
<path fill="none" stroke="black" d="M266.33,-145.36C269.53,-144.9 272.7,-144.45 275.82,-144 371.18,-130.35 480.1,-115.16 556.62,-104.55"/>
<polygon fill="black" stroke="black" points="557.31,-107.99 566.73,-103.15 556.35,-101.06 557.31,-107.99"/>
</g>
<!-- [root] var.keyName -->
<g id="node10" class="node">
<title>[root] var.keyName</title>
<polygon fill="none" stroke="black" points="208.82,-108 104.82,-108 104.82,-72 214.82,-72 214.82,-102 208.82,-108"/>
<polyline fill="none" stroke="black" points="208.82,-108 208.82,-102 "/>
<polyline fill="none" stroke="black" points="214.82,-102 208.82,-102 "/>
<text text-anchor="middle" x="159.82" y="-86.3" font-family="Times,serif" font-size="14.00">var.keyName</text>
</g>
<!-- [root] aws_key_pair.terraform&#45;key (expand)&#45;&gt;[root] var.keyName -->
<g id="edge9" class="edge">
<title>[root] aws_key_pair.terraform&#45;key (expand)&#45;&gt;[root] var.keyName</title>
<path fill="none" stroke="black" d="M159.82,-143.7C159.82,-135.98 159.82,-126.71 159.82,-118.11"/>
<polygon fill="black" stroke="black" points="163.32,-118.1 159.82,-108.1 156.32,-118.1 163.32,-118.1"/>
</g>
<!-- [root] aws_security_group.security&#45;group (expand) -->
<g id="node5" class="node">
<title>[root] aws_security_group.security&#45;group (expand)</title>
<polygon fill="none" stroke="black" points="952.82,-324 686.82,-324 686.82,-288 952.82,-288 952.82,-324"/>
<text text-anchor="middle" x="819.82" y="-302.3" font-family="Times,serif" font-size="14.00">aws_security_group.security&#45;group</text>
</g>
<!-- [root] aws_security_group.security&#45;group (expand)&#45;&gt;[root] provider[&quot;registry.terraform.io/hashicorp/aws&quot;] -->
<g id="edge10" class="edge">
<title>[root] aws_security_group.security&#45;group (expand)&#45;&gt;[root] provider[&quot;registry.terraform.io/hashicorp/aws&quot;]</title>
<path fill="none" stroke="black" d="M833.98,-287.87C858.3,-256.27 902.22,-188.01 867.82,-144 853.67,-125.89 805.53,-113.07 758.6,-104.59"/>
<polygon fill="black" stroke="black" points="759.06,-101.12 748.61,-102.84 757.86,-108.01 759.06,-101.12"/>
</g>
<!-- [root] aws_security_group.security&#45;group (expand)&#45;&gt;[root] var.sgName -->
<g id="edge11" class="edge">
<title>[root] aws_security_group.security&#45;group (expand)&#45;&gt;[root] var.sgName</title>
<path fill="none" stroke="black" d="M818.38,-287.87C816.33,-263.67 812.57,-219.21 810.14,-190.39"/>
<polygon fill="black" stroke="black" points="813.61,-189.86 809.28,-180.19 806.63,-190.45 813.61,-189.86"/>
</g>
<!-- [root] data.aws_ami.ubuntu (expand)&#45;&gt;[root] provider[&quot;registry.terraform.io/hashicorp/aws&quot;] -->
<g id="edge12" class="edge">
<title>[root] data.aws_ami.ubuntu (expand)&#45;&gt;[root] provider[&quot;registry.terraform.io/hashicorp/aws&quot;]</title>
<path fill="none" stroke="black" d="M654.82,-143.7C654.82,-135.98 654.82,-126.71 654.82,-118.11"/>
<polygon fill="black" stroke="black" points="658.32,-118.1 654.82,-108.1 651.32,-118.1 658.32,-118.1"/>
</g>
<!-- [root] var.region -->
<g id="node11" class="node">
<title>[root] var.region</title>
<polygon fill="none" stroke="black" points="693.32,-36 610.32,-36 610.32,0 699.32,0 699.32,-30 693.32,-36"/>
<polyline fill="none" stroke="black" points="693.32,-36 693.32,-30 "/>
<polyline fill="none" stroke="black" points="699.32,-30 693.32,-30 "/>
<text text-anchor="middle" x="654.82" y="-14.3" font-family="Times,serif" font-size="14.00">var.region</text>
</g>
<!-- [root] provider[&quot;registry.terraform.io/hashicorp/aws&quot;]&#45;&gt;[root] var.region -->
<g id="edge17" class="edge">
<title>[root] provider[&quot;registry.terraform.io/hashicorp/aws&quot;]&#45;&gt;[root] var.region</title>
<path fill="none" stroke="black" d="M654.82,-71.7C654.82,-63.98 654.82,-54.71 654.82,-46.11"/>
<polygon fill="black" stroke="black" points="658.32,-46.1 654.82,-36.1 651.32,-46.1 658.32,-46.1"/>
</g>
<!-- [root] meta.count&#45;boundary (EachMode fixup) -->
<g id="node13" class="node">
<title>[root] meta.count&#45;boundary (EachMode fixup)</title>
<ellipse fill="none" stroke="black" cx="824.82" cy="-450" rx="223.66" ry="18"/>
<text text-anchor="middle" x="824.82" y="-446.3" font-family="Times,serif" font-size="14.00">[root] meta.count&#45;boundary (EachMode fixup)</text>
</g>
<!-- [root] meta.count&#45;boundary (EachMode fixup)&#45;&gt;[root] aws_eip_association.eip&#45;assoc (expand) -->
<g id="edge13" class="edge">
<title>[root] meta.count&#45;boundary (EachMode fixup)&#45;&gt;[root] aws_eip_association.eip&#45;assoc (expand)</title>
<path fill="none" stroke="black" d="M747.22,-433.12C696.38,-422.71 629.66,-409.05 575.97,-398.06"/>
<polygon fill="black" stroke="black" points="576.6,-394.62 566.1,-396.04 575.19,-401.48 576.6,-394.62"/>
</g>
<!-- [root] meta.count&#45;boundary (EachMode fixup)&#45;&gt;[root] aws_security_group.security&#45;group (expand) -->
<g id="edge14" class="edge">
<title>[root] meta.count&#45;boundary (EachMode fixup)&#45;&gt;[root] aws_security_group.security&#45;group (expand)</title>
<path fill="none" stroke="black" d="M824.22,-431.87C823.37,-407.67 821.8,-363.21 820.79,-334.39"/>
<polygon fill="black" stroke="black" points="824.28,-334.06 820.43,-324.19 817.28,-334.31 824.28,-334.06"/>
</g>
<!-- [root] provider[&quot;registry.terraform.io/hashicorp/aws&quot;] (close) -->
<g id="node14" class="node">
<title>[root] provider[&quot;registry.terraform.io/hashicorp/aws&quot;] (close)</title>
<ellipse fill="none" stroke="black" cx="291.82" cy="-450" rx="291.65" ry="18"/>
<text text-anchor="middle" x="291.82" y="-446.3" font-family="Times,serif" font-size="14.00">[root] provider[&quot;registry.terraform.io/hashicorp/aws&quot;] (close)</text>
</g>
<!-- [root] provider[&quot;registry.terraform.io/hashicorp/aws&quot;] (close)&#45;&gt;[root] aws_eip_association.eip&#45;assoc (expand) -->
<g id="edge15" class="edge">
<title>[root] provider[&quot;registry.terraform.io/hashicorp/aws&quot;] (close)&#45;&gt;[root] aws_eip_association.eip&#45;assoc (expand)</title>
<path fill="none" stroke="black" d="M338.06,-432.05C364.73,-422.28 398.45,-409.92 426.63,-399.59"/>
<polygon fill="black" stroke="black" points="428.17,-402.76 436.35,-396.03 425.76,-396.19 428.17,-402.76"/>
</g>
<!-- [root] provider[&quot;registry.terraform.io/hashicorp/aws&quot;] (close)&#45;&gt;[root] aws_security_group.security&#45;group (expand) -->
<g id="edge16" class="edge">
<title>[root] provider[&quot;registry.terraform.io/hashicorp/aws&quot;] (close)&#45;&gt;[root] aws_security_group.security&#45;group (expand)</title>
<path fill="none" stroke="black" d="M299.59,-431.88C310.04,-411.02 330.74,-376.52 359.82,-360 387.09,-344.51 551.99,-328.22 676.63,-317.85"/>
<polygon fill="black" stroke="black" points="676.98,-321.33 686.66,-317.02 676.41,-314.36 676.98,-321.33"/>
</g>
<!-- [root] root -->
<g id="node15" class="node">
<title>[root] root</title>
<ellipse fill="none" stroke="black" cx="557.82" cy="-522" rx="58.49" ry="18"/>
<text text-anchor="middle" x="557.82" y="-518.3" font-family="Times,serif" font-size="14.00">[root] root</text>
</g>
<!-- [root] root&#45;&gt;[root] meta.count&#45;boundary (EachMode fixup) -->
<g id="edge18" class="edge">
<title>[root] root&#45;&gt;[root] meta.count&#45;boundary (EachMode fixup)</title>
<path fill="none" stroke="black" d="M600.72,-509.75C641.68,-499.01 704.19,-482.63 752.79,-469.89"/>
<polygon fill="black" stroke="black" points="753.84,-473.23 762.62,-467.31 752.06,-466.46 753.84,-473.23"/>
</g>
<!-- [root] root&#45;&gt;[root] provider[&quot;registry.terraform.io/hashicorp/aws&quot;] (close) -->
<g id="edge19" class="edge">
<title>[root] root&#45;&gt;[root] provider[&quot;registry.terraform.io/hashicorp/aws&quot;] (close)</title>
<path fill="none" stroke="black" d="M514.79,-509.68C474.28,-499.01 412.8,-482.84 364.65,-470.17"/>
<polygon fill="black" stroke="black" points="365.47,-466.76 354.9,-467.6 363.68,-473.53 365.47,-466.76"/>
</g>
</g>
</svg>
